<?xml version="1.0" encoding="utf-8"?>
<!-- Generator: Adobe Illustrator 20.0.0, SVG Export Plug-In . SVG Version: 6.00 Build 0)  -->
<svg version="1.1" id="Layer_1" xmlns="http://www.w3.org/2000/svg" xmlns:xlink="http://www.w3.org/1999/xlink" x="0px" y="0px"
	 viewBox="0 0 1224 402.1" style="enable-background:new 0 0 1224 402.1;" xml:space="preserve">
<style type="text/css">
	.st0{fill:#55565A;}
	.st1{fill:#FFD100;}
	.st2{fill:#FFFFFF;}
</style>
<g>
	<polygon class="st0" points="73.3,390.1 88.1,390.1 99.4,226.4 116.7,226.4 116.7,216.1 136.3,216.1 136.3,197.4 25.2,197.4 
		25.2,216.1 44.7,216.1 44.7,226.4 61.9,226.4 	"/>
	<g>
		<path class="st1" d="M9.3,126c0.2-1.9,0.3-3.8,0.6-5.7c0.7-4.9,2.2-9.5,4.3-14c2.8-6,6.6-11.3,11.2-16c5.5-5.7,11.9-10.3,19-13.9
			c6.1-3,12.4-5.2,19.1-6.2c1.8-0.3,3.7-0.5,5.5-0.1c2.5,0.5,4.2,1.9,4.6,4.5c0,0,0,0.1,0,0.1c1-0.2,2-0.4,3-0.6
			c3.5-0.5,6.9-0.4,10.3,0.7c1.4,0.5,2.7,1.2,3.7,2.3c1.6,1.7,2,3.7,1.8,5.9c-0.1,0.7-0.2,1.4-0.3,2.2c-0.3-0.2-0.6-0.3-0.8-0.4
			c-3.4-1.7-6.8-1.7-10.3-0.4c-3.4,1.3-6.1,3.5-8.4,6.2c-3,3.6-4.9,7.8-6.2,12.3c-1,3.4-1.6,6.9-2,10.4c0,0.2,0,0.4,0,0.6
			c1-0.2,2-0.4,3-0.6c9.7-2.2,19-5.5,27.9-10c9.2-4.6,17.6-10.4,25.2-17.4C131.9,76,140.8,64,147.8,50.6c5-9.7,8.9-19.8,11.5-30.4
			c1.1-4.5,2-9.1,2.5-13.7c0-0.1,0-0.2,0-0.3c0,0,0.1,0,0.1,0c1.5,1.2,2.6,2.8,3.5,4.5c1.4,2.9,2.2,6,2.6,9.2
			c0.2,1.8,0.3,3.6,0.5,5.5c0,1.4,0,2.7,0,4.1c-0.1,1.2-0.1,2.3-0.2,3.5c-0.5,5.8-1.5,11.5-2.9,17.2c-2.3,9.1-5.7,17.7-10.1,26
			c-7.2,13.6-16.7,25.5-28.5,35.5c-12.2,10.2-26,17.6-41.1,22.3c-1.4,0.4-2.8,0.8-4.2,1.3c0,0.2,0,0.3,0,0.5c0,0.2,0,0.3,0,0.5
			c0.2,0,0.4,0,0.6,0c4-0.1,8-0.7,11.9-1.8c7-1.8,13.7-4.7,20.1-8.1c8-4.3,15.4-9.4,22.3-15.3c6.5-5.5,12.4-11.6,17.4-18.6
			c3.5-4.9,6.5-10.2,8.5-15.9c0.5-1.5,0.9-2.9,1.4-4.5c0.1,0.2,0.2,0.3,0.3,0.5c0.7,1.4,1.2,2.9,1.5,4.4c0.9,4.3,0.7,8.6-0.1,12.9
			c-1,5.7-2.9,11-5.5,16.2c-3.7,7.5-8.6,14.1-14.4,20.1c-5.3,5.4-11.1,10.1-17.4,14.1c-10.2,6.5-21.1,11.3-32.7,14.8
			c-7.4,2.2-14.8,3.9-22.4,5.1c-0.9,0.1-0.9,0.2-0.8,1.1c0.1,0,0.3,0.1,0.4,0.1c2.5,0,4.9,0.2,7.4,0.1c6.8-0.2,13.5-1.3,20.1-3.2
			c9.5-2.7,18.3-6.8,26.7-11.9c6.9-4.2,13.3-9,19.2-14.5c0.1-0.1,0.1-0.1,0.2-0.1c-0.4,4.1-2,9.2-3.9,12.9
			c-3,5.9-7.2,10.8-12.3,14.9c-5.9,4.9-12.5,8.5-19.5,11.3c-8.1,3.3-16.5,5.4-25.2,6.6c-6.2,0.9-12.4,1.2-18.6,1.1
			c-5.4-0.1-10.7-0.7-15.9-1.7c-5.7-1.1-11.2-2.7-16.5-5.2c-4.4-2-8.4-4.6-11.9-8c-3-2.9-5.3-6.3-7-10.1c-2.3-5.3-4.2-10.8-5-16.5
			c-0.3-2.1-0.5-4.3-0.7-6.5C9.3,129,9.3,127.5,9.3,126z M59.1,116.7c-0.7-1.4-0.6-2.7-0.5-4.2c0.5-4.4,1.3-8.7,2.7-12.9
			c1.6-4.7,3.7-9,6.9-12.9c0.6-0.7,1.3-1.4,1.8-2.1c0.8-1,1.3-2.2,1-3.5c-0.2-1.1-1.8-2.1-2.9-0.9c-0.2,0.2-0.4,0.4-0.7,0.6
			c-2,1.6-4.1,3.1-6.5,4c-1,0.4-2.1,0.7-3.2,0.5c-1-0.2-1.5-1-1.3-2c0.3-1.3,1.2-2.2,2.2-2.9c1.2-0.9,2.6-1.4,4.1-1.6
			c0.8-0.1,1.4-0.4,1.8-1.1c0.3-0.5,0.2-1-0.4-1.1c-0.5-0.1-1-0.1-1.4,0c-1.5,0.3-3,0.5-4.5,0.9C48.1,80,39.1,85,31.7,92.6
			c-5.3,5.4-9.2,11.6-11.8,18.7c-0.3,0.7-0.2,1.2,0.1,1.9c1,2,2.2,3.8,4.2,5c1.2,0.7,2.4,1.1,3.8,0.9c0-0.2,0.1-0.3,0.1-0.5
			c0.5-1.9,1.3-3.6,2.5-5.2c1.1-1.3,2.4-2.1,4-2.4c0.4-0.1,0.6,0,0.7,0.4c0.2,0.6,0.5,1.1,0.8,1.6c0.9,1.6,2.1,3.1,3.8,4.1
			c1.1,0.7,2.3,1,3.6,0.8c0-0.2,0.1-0.3,0.1-0.4c0.5-1.8,1.2-3.5,2.3-4.9c1.2-1.5,2.7-2.6,4.7-2.7c0.2,0.5,0.5,1,0.7,1.5
			c1,1.9,2.3,3.6,4.2,4.7C56.6,116.6,57.8,116.8,59.1,116.7z"/>
		<path class="st2" d="M59.1,116.7c-1.3,0.1-2.5-0.1-3.5-0.7c-1.9-1.1-3.2-2.8-4.2-4.7c-0.3-0.5-0.5-1-0.7-1.5
			c-2,0.2-3.5,1.2-4.7,2.7c-1.2,1.5-1.9,3.2-2.3,4.9c0,0.1-0.1,0.3-0.1,0.4c-1.3,0.1-2.5-0.2-3.6-0.8c-1.7-1-2.8-2.4-3.8-4.1
			c-0.3-0.5-0.6-1-0.8-1.6c-0.1-0.4-0.4-0.4-0.7-0.4c-1.6,0.3-3,1.2-4,2.4c-1.3,1.5-2,3.3-2.5,5.2c0,0.2-0.1,0.3-0.1,0.5
			c-1.4,0.1-2.6-0.2-3.8-0.9c-1.9-1.2-3.1-3-4.2-5c-0.3-0.6-0.3-1.2-0.1-1.9c2.7-7,6.5-13.3,11.8-18.7C39.1,85,48.1,80,58.3,77.4
			c1.5-0.4,3-0.6,4.5-0.9c0.5-0.1,1-0.1,1.4,0c0.6,0.1,0.8,0.6,0.4,1.1c-0.4,0.7-1.1,1-1.8,1.1c-1.5,0.2-2.9,0.7-4.1,1.6
			c-1,0.7-1.9,1.6-2.2,2.9c-0.2,1,0.3,1.8,1.3,2c1.1,0.2,2.2-0.1,3.2-0.5c2.4-0.9,4.5-2.4,6.5-4c0.2-0.2,0.5-0.3,0.7-0.6
			c1.1-1.2,2.7-0.1,2.9,0.9c0.3,1.4-0.2,2.5-1,3.5c-0.6,0.7-1.3,1.4-1.8,2.1c-3.2,3.8-5.3,8.2-6.9,12.9c-1.4,4.2-2.2,8.5-2.7,12.9
			C58.5,114,58.4,115.4,59.1,116.7z"/>
	</g>
	<polygon class="st0" points="189.8,200.4 213.6,200.4 213.6,301.4 264,301.4 264,322.4 189.8,322.4 	"/>
	<rect x="278" y="200.4" class="st0" width="23.9" height="122"/>
	<g>
		<path class="st0" d="M350.7,267.1v36.6h19.2c9.9,0,17-1.7,21.2-5.1c4.2-3.4,6.3-7.9,6.3-13.5c0-5.2-1.9-9.4-5.7-12.8
			c-3.8-3.4-9.4-5.1-16.7-5.1H350.7z M350.7,218.9v29.3h25.6c5.5,0,10.2-1.7,14.3-5.1c2.6-2.2,3.9-5.4,3.9-9.8
			c0-4.3-1.5-7.8-4.5-10.4c-3-2.7-7.8-4-14.3-4H350.7z M326.9,200.4h52c12.3,0,21.5,1.9,27.5,5.7c8.6,5.4,12.9,13.2,12.9,23.4
			c0,7.7-2.6,14.1-7.7,19.4c-3.5,3.5-8.5,6.4-15.1,8.8c5.7,1.7,10,3.7,13,5.9c4.1,3.1,7.4,6.9,9.6,11.4c2.3,4.5,3.4,9.1,3.4,13.9
			c0,5.5-1.4,10.9-4.3,16.1c-2.9,5.2-7.4,9.4-13.7,12.6c-6.3,3.2-14.2,4.9-23.9,4.9h-53.7V200.4z"/>
	</g>
	<polygon class="st0" points="442.9,200.4 524.7,200.4 524.7,221.6 466.9,221.6 466.9,248.5 502.1,248.5 502.1,266.6 466.9,266.6 
		466.9,301.4 524.7,301.4 524.7,322.4 442.9,322.4 	"/>
	<g>
		<path class="st0" d="M570.8,221.7v32.8H590c7,0,13-2,17.9-6c3.2-2.7,4.9-6.4,4.9-11.1c0-4.5-1.8-8.3-5.4-11.3
			c-3.6-3-9.4-4.5-17.4-4.5H570.8z M546.7,200.4h32.9c17.7,0,29.9,1.3,36.7,4c6.8,2.7,12,7,15.8,13.2c3.8,6.1,5.7,13.1,5.7,21
			c0,7.3-1.7,13.3-5.1,18.1c-3.4,4.8-9.3,8.8-17.7,12.2l21.9,53.5h-23.8l-20.4-49h-22v49h-24.1V200.4z"/>
	</g>
	<polygon class="st0" points="645.1,200.4 737.6,200.4 737.6,221.4 703.2,221.4 703.2,322.4 679.3,322.4 679.3,221.4 645.1,221.4 	
		"/>
	<path class="st0" d="M782.4,233.4l-14,42.6h27.8L782.4,233.4z M769.7,200.4h25.4l39.7,122h-23.6l-9.3-28.6h-39l-9.2,28.6h-23.6
		L769.7,200.4z"/>
	<g>
		<path class="st0" d="M871.1,221.7v32.8h19.2c7,0,13-2,17.9-6c3.2-2.7,4.9-6.4,4.9-11.1c0-4.5-1.8-8.3-5.4-11.3
			c-3.6-3-9.4-4.5-17.4-4.5H871.1z M847,200.4h32.9c17.7,0,29.9,1.3,36.7,4c6.8,2.7,12,7,15.8,13.2c3.8,6.1,5.7,13.1,5.7,21
			c0,7.3-1.7,13.3-5.1,18.1c-3.4,4.8-9.3,8.8-17.7,12.2l21.9,53.5h-23.8l-20.4-49h-22v49H847V200.4z"/>
	</g>
	<rect x="961.1" y="200.4" class="st0" width="23.9" height="122"/>
	<path class="st0" d="M1048.2,233.4l-14,42.6h27.8L1048.2,233.4z M1037.3,200.4h25.4l39.7,122h-23.6l-9.3-28.6h-39l-9.2,28.6h-23.6
		L1037.3,200.4z"/>
	<polygon class="st0" points="1114.4,200.4 1139.8,200.4 1189.8,282.3 1189.8,200.4 1213.6,200.4 1213.6,322.4 1189.8,322.4 
		1138.4,237.3 1138.4,322.4 1114.4,322.4 	"/>
</g>
</svg>
