<?xml version="1.0" standalone="no"?>
<!DOCTYPE svg PUBLIC "-//W3C//DTD SVG 20010904//EN"
 "http://www.w3.org/TR/2001/REC-SVG-20010904/DTD/svg10.dtd">
<svg version="1.0" xmlns="http://www.w3.org/2000/svg"
 width="800.000000pt" height="800.000000pt" viewBox="0 0 800.000000 800.000000"
 preserveAspectRatio="xMidYMid meet">

<g transform="translate(0.000000,800.000000) scale(0.100000,-0.100000)"
fill="#000000" stroke="none">
<path d="M0 4000 l0 -4000 4000 0 4000 0 0 4000 0 4000 -4000 0 -4000 0 0
-4000z m3070 -1001 c0 -24 -5 -39 -15 -43 -8 -3 -15 -12 -15 -20 0 -8 -3 -16
-7 -18 -16 -7 -54 -69 -59 -98 -4 -16 -10 -30 -14 -30 -4 0 -11 -61 -15 -135
-4 -74 -11 -135 -14 -135 -4 0 -13 -75 -19 -167 -7 -92 -15 -169 -17 -172 -3
-3 -13 3 -23 12 -15 15 -17 45 -20 228 -2 127 0 215 6 222 6 7 13 33 17 60 4
26 10 47 14 47 6 0 26 45 28 64 1 5 6 12 11 15 6 3 13 56 17 116 4 62 13 125
22 144 l15 33 44 -43 c36 -36 44 -50 44 -80z"/>
</g>
</svg>
