<?xml version="1.0" standalone="no"?>
<!DOCTYPE svg PUBLIC "-//W3C//DTD SVG 20010904//EN"
 "http://www.w3.org/TR/2001/REC-SVG-20010904/DTD/svg10.dtd">
<svg version="1.0" xmlns="http://www.w3.org/2000/svg"
 width="564.000000pt" height="563.000000pt" viewBox="0 0 564.000000 563.000000"
 preserveAspectRatio="xMidYMid meet">

<g transform="translate(0.000000,563.000000) scale(0.100000,-0.100000)"
fill="#000000" stroke="none">
<path d="M1120 4403 c-190 -135 -376 -355 -490 -582 -53 -106 -114 -290 -136
-406 -21 -115 -30 -370 -16 -457 14 -89 54 -175 125 -272 l59 -79 79 79 78 78
-24 31 c-14 16 -42 59 -62 95 -37 64 -37 67 -41 191 -11 327 86 620 291 888
48 62 158 176 208 214 l34 26 225 -74 c124 -40 329 -107 456 -148 l231 -75
161 57 c89 31 164 59 166 62 3 3 -137 51 -312 108 -508 164 -925 299 -947 305
-14 3 -41 -10 -85 -41z"/>
<path d="M2855 3974 c-101 -20 -133 -29 -202 -56 -187 -73 -577 -212 -683
-244 -127 -39 -163 -64 -182 -126 -10 -33 -8 -43 17 -95 40 -81 151 -191 235
-231 94 -44 214 -66 325 -59 83 6 327 61 519 116 l68 20 391 -352 c215 -194
511 -459 657 -591 146 -131 274 -245 286 -253 16 -10 60 -13 172 -14 229 0
411 44 571 138 63 37 201 157 201 174 0 27 -259 626 -373 862 -134 278 -300
557 -331 557 -6 0 -153 -39 -326 -86 l-315 -87 -250 93 c-138 51 -339 125
-448 166 -167 62 -207 74 -255 73 -31 -1 -66 -3 -77 -5z"/>
<path d="M942 2638 c-57 -30 -266 -253 -282 -303 -16 -50 -7 -121 24 -187 41
-84 569 -768 749 -968 205 -230 225 -244 327 -244 83 0 127 22 206 106 227
238 245 263 246 357 2 138 -111 253 -249 255 -57 1 -63 6 -36 27 30 25 53 91
53 155 0 74 -34 150 -88 194 -51 42 -137 73 -188 67 l-40 -4 17 35 c49 95 29
202 -54 287 -40 41 -65 57 -106 69 -68 20 -95 20 -157 1 -27 -8 -50 -15 -51
-15 -2 0 -9 15 -17 33 -54 130 -231 198 -354 135z"/>
<path d="M2964 2562 c-35 -5 -68 -48 -68 -88 0 -33 29 -64 497 -532 383 -383
497 -503 497 -521 0 -68 -91 -176 -168 -199 -89 -27 -59 -51 -538 428 -241
242 -454 447 -472 456 -30 14 -36 14 -69 -3 -40 -20 -59 -58 -49 -99 4 -15
180 -198 436 -454 263 -262 430 -437 430 -448 0 -22 -41 -86 -73 -114 -60 -52
-172 -74 -244 -47 -15 5 -172 154 -348 330 -307 305 -322 319 -358 319 -52 0
-87 -35 -87 -87 0 -35 12 -49 245 -283 l245 -245 -23 -28 c-64 -78 -159 -109
-254 -82 -50 15 -69 29 -178 136 l-122 119 -73 -81 -74 -81 126 -124 c99 -97
140 -131 190 -154 159 -74 334 -55 475 52 62 46 66 48 88 34 13 -8 50 -24 84
-36 121 -40 281 -20 390 49 59 38 145 127 167 173 15 31 21 35 82 44 97 16
176 57 254 135 66 65 128 168 128 212 0 10 8 20 18 23 157 53 271 164 322 313
16 49 20 82 18 149 l-3 87 -85 7 c-47 4 -100 10 -118 13 -32 6 -33 5 -26 -17
48 -147 -28 -301 -168 -339 l-41 -11 -491 491 c-270 269 -502 494 -516 499
-14 4 -35 6 -46 4z"/>
</g>
</svg>
