<?xml version="1.0" encoding="UTF-8"?>
<svg width="1205px" height="433px" viewBox="0 0 1205 433" version="1.1" xmlns="http://www.w3.org/2000/svg" xmlns:xlink="http://www.w3.org/1999/xlink">
    <title>Libertarian Party of Duval County</title>
    <defs></defs>
    <g id="Page-1" stroke="none" stroke-width="1" fill="none" fill-rule="evenodd">
        <g id="lp_logo_primary_pms">
            <g id="Group">
                <polygon id="Shape" fill="#55565A" points="64.3 384.1 79.1 384.1 90.4 220.4 107.7 220.4 107.7 210.1 127.3 210.1 127.3 191.4 16.2 191.4 16.2 210.1 35.7 210.1 35.7 220.4 52.9 220.4"></polygon>
                <g id="Shape">
                    <path d="M0.3,120 C0.5,118.1 0.6,116.2 0.9,114.3 C1.6,109.4 3.1,104.8 5.2,100.3 C8,94.3 11.8,89 16.4,84.3 C21.9,78.6 28.3,74 35.4,70.4 C41.5,67.4 47.8,65.2 54.5,64.2 C56.3,63.9 58.2,63.7 60,64.1 C62.5,64.6 64.2,66 64.6,68.6 L64.6,68.7 C65.6,68.5 66.6,68.3 67.6,68.1 C71.1,67.6 74.5,67.7 77.9,68.8 C79.3,69.3 80.6,70 81.6,71.1 C83.2,72.8 83.6,74.8 83.4,77 C83.3,77.7 83.2,78.4 83.1,79.2 C82.8,79 82.5,78.9 82.3,78.8 C78.9,77.1 75.5,77.1 72,78.4 C68.6,79.7 65.9,81.9 63.6,84.6 C60.6,88.2 58.7,92.4 57.4,96.9 C56.4,100.3 55.8,103.8 55.4,107.3 L55.4,107.9 C56.4,107.7 57.4,107.5 58.4,107.3 C68.1,105.1 77.4,101.8 86.3,97.3 C95.5,92.7 103.9,86.9 111.5,79.9 C122.9,70 131.8,58 138.8,44.6 C143.8,34.9 147.7,24.8 150.3,14.2 C151.4,9.7 152.3,5.1 152.8,0.5 L152.8,0.2 L152.9,0.2 C154.4,1.4 155.5,3 156.4,4.7 C157.8,7.6 158.6,10.7 159,13.9 C159.2,15.7 159.3,17.5 159.5,19.4 L159.5,23.5 C159.4,24.7 159.4,25.8 159.3,27 C158.8,32.8 157.8,38.5 156.4,44.2 C154.1,53.3 150.7,61.9 146.3,70.2 C139.1,83.8 129.6,95.7 117.8,105.7 C105.6,115.9 91.8,123.3 76.7,128 C75.3,128.4 73.9,128.8 72.5,129.3 L72.5,129.8 L72.5,130.3 L73.1,130.3 C77.1,130.2 81.1,129.6 85,128.5 C92,126.7 98.7,123.8 105.1,120.4 C113.1,116.1 120.5,111 127.4,105.1 C133.9,99.6 139.8,93.5 144.8,86.5 C148.3,81.6 151.3,76.3 153.3,70.6 C153.8,69.1 154.2,67.7 154.7,66.1 C154.8,66.3 154.9,66.4 155,66.6 C155.7,68 156.2,69.5 156.5,71 C157.4,75.3 157.2,79.6 156.4,83.9 C155.4,89.6 153.5,94.9 150.9,100.1 C147.2,107.6 142.3,114.2 136.5,120.2 C131.2,125.6 125.4,130.3 119.1,134.3 C108.9,140.8 98,145.6 86.4,149.1 C79,151.3 71.6,153 64,154.2 C63.1,154.3 63.1,154.4 63.2,155.3 C63.3,155.3 63.5,155.4 63.6,155.4 C66.1,155.4 68.5,155.6 71,155.5 C77.8,155.3 84.5,154.2 91.1,152.3 C100.6,149.6 109.4,145.5 117.8,140.4 C124.7,136.2 131.1,131.4 137,125.9 C137.1,125.8 137.1,125.8 137.2,125.8 C136.8,129.9 135.2,135 133.3,138.7 C130.3,144.6 126.1,149.5 121,153.6 C115.1,158.5 108.5,162.1 101.5,164.9 C93.4,168.2 85,170.3 76.3,171.5 C70.1,172.4 63.9,172.7 57.7,172.6 C52.3,172.5 47,171.9 41.8,170.9 C36.1,169.8 30.6,168.2 25.3,165.7 C20.9,163.7 16.9,161.1 13.4,157.7 C10.4,154.8 8.1,151.4 6.4,147.6 C4.1,142.3 2.2,136.8 1.4,131.1 C1.1,129 0.9,126.8 0.7,124.6 C0.3,123 0.3,121.5 0.3,120 Z M50.1,110.7 C49.4,109.3 49.5,108 49.6,106.5 C50.1,102.1 50.9,97.8 52.3,93.6 C53.9,88.9 56,84.6 59.2,80.7 C59.8,80 60.5,79.3 61,78.6 C61.8,77.6 62.3,76.4 62,75.1 C61.8,74 60.2,73 59.1,74.2 C58.9,74.4 58.7,74.6 58.4,74.8 C56.4,76.4 54.3,77.9 51.9,78.8 C50.9,79.2 49.8,79.5 48.7,79.3 C47.7,79.1 47.2,78.3 47.4,77.3 C47.7,76 48.6,75.1 49.6,74.4 C50.8,73.5 52.2,73 53.7,72.8 C54.5,72.7 55.1,72.4 55.5,71.7 C55.8,71.2 55.7,70.7 55.1,70.6 C54.6,70.5 54.1,70.5 53.7,70.6 C52.2,70.9 50.7,71.1 49.2,71.5 C39.1,74 30.1,79 22.7,86.6 C17.4,92 13.5,98.2 10.9,105.3 C10.6,106 10.7,106.5 11,107.2 C12,109.2 13.2,111 15.2,112.2 C16.4,112.9 17.6,113.3 19,113.1 C19,112.9 19.1,112.8 19.1,112.6 C19.6,110.7 20.4,109 21.6,107.4 C22.7,106.1 24,105.3 25.6,105 C26,104.9 26.2,105 26.3,105.4 C26.5,106 26.8,106.5 27.1,107 C28,108.6 29.2,110.1 30.9,111.1 C32,111.8 33.2,112.1 34.5,111.9 C34.5,111.7 34.6,111.6 34.6,111.5 C35.1,109.7 35.8,108 36.9,106.6 C38.1,105.1 39.6,104 41.6,103.9 C41.8,104.4 42.1,104.9 42.3,105.4 C43.3,107.3 44.6,109 46.5,110.1 C47.6,110.6 48.8,110.8 50.1,110.7 Z" fill="#FFD100"></path>
                    <path d="M50.1,110.7 C48.8,110.8 47.6,110.6 46.6,110 C44.7,108.9 43.4,107.2 42.4,105.3 C42.1,104.8 41.9,104.3 41.7,103.8 C39.7,104 38.2,105 37,106.5 C35.8,108 35.1,109.7 34.7,111.4 C34.7,111.5 34.6,111.7 34.6,111.8 C33.3,111.9 32.1,111.6 31,111 C29.3,110 28.2,108.6 27.2,106.9 C26.9,106.4 26.6,105.9 26.4,105.3 C26.3,104.9 26,104.9 25.7,104.9 C24.1,105.2 22.7,106.1 21.7,107.3 C20.4,108.8 19.7,110.6 19.2,112.5 C19.2,112.7 19.1,112.8 19.1,113 C17.7,113.1 16.5,112.8 15.3,112.1 C13.4,110.9 12.2,109.1 11.1,107.1 C10.8,106.5 10.8,105.9 11,105.2 C13.7,98.2 17.5,91.9 22.8,86.5 C30.1,79 39.1,74 49.3,71.4 C50.8,71 52.3,70.8 53.8,70.5 C54.3,70.4 54.8,70.4 55.2,70.5 C55.8,70.6 56,71.1 55.6,71.6 C55.2,72.3 54.5,72.6 53.8,72.7 C52.3,72.9 50.9,73.4 49.7,74.3 C48.7,75 47.8,75.9 47.5,77.2 C47.3,78.2 47.8,79 48.8,79.2 C49.9,79.4 51,79.1 52,78.7 C54.4,77.8 56.5,76.3 58.5,74.7 C58.7,74.5 59,74.4 59.2,74.1 C60.3,72.9 61.9,74 62.1,75 C62.4,76.4 61.9,77.5 61.1,78.5 C60.5,79.2 59.8,79.9 59.3,80.6 C56.1,84.4 54,88.8 52.4,93.5 C51,97.7 50.2,102 49.7,106.4 C49.5,108 49.4,109.4 50.1,110.7 Z" fill="#FFFFFF"></path>
                </g>
                <polygon id="Shape" fill="#55565A" points="180.8 194.4 204.6 194.4 204.6 295.4 255 295.4 255 316.4 180.8 316.4"></polygon>
                <rect id="Rectangle-path" fill="#55565A" x="269" y="194.4" width="23.9" height="122"></rect>
                <path d="M341.7,261.1 L341.7,297.7 L360.9,297.7 C370.8,297.7 377.9,296 382.1,292.6 C386.3,289.2 388.4,284.7 388.4,279.1 C388.4,273.9 386.5,269.7 382.7,266.3 C378.9,262.9 373.3,261.2 366,261.2 L341.7,261.2 L341.7,261.1 Z M341.7,212.9 L341.7,242.2 L367.3,242.2 C372.8,242.2 377.5,240.5 381.6,237.1 C384.2,234.9 385.5,231.7 385.5,227.3 C385.5,223 384,219.5 381,216.9 C378,214.2 373.2,212.9 366.7,212.9 L341.7,212.9 Z M317.9,194.4 L369.9,194.4 C382.2,194.4 391.4,196.3 397.4,200.1 C406,205.5 410.3,213.3 410.3,223.5 C410.3,231.2 407.7,237.6 402.6,242.9 C399.1,246.4 394.1,249.3 387.5,251.7 C393.2,253.4 397.5,255.4 400.5,257.6 C404.6,260.7 407.9,264.5 410.1,269 C412.4,273.5 413.5,278.1 413.5,282.9 C413.5,288.4 412.1,293.8 409.2,299 C406.3,304.2 401.8,308.4 395.5,311.6 C389.2,314.8 381.3,316.5 371.6,316.5 L317.9,316.5 L317.9,194.4 Z" id="Shape" fill="#55565A"></path>
                <polygon id="Shape" fill="#55565A" points="433.9 194.4 515.7 194.4 515.7 215.6 457.9 215.6 457.9 242.5 493.1 242.5 493.1 260.6 457.9 260.6 457.9 295.4 515.7 295.4 515.7 316.4 433.9 316.4"></polygon>
                <path d="M561.8,215.7 L561.8,248.5 L581,248.5 C588,248.5 594,246.5 598.9,242.5 C602.1,239.8 603.8,236.1 603.8,231.4 C603.8,226.9 602,223.1 598.4,220.1 C594.8,217.1 589,215.6 581,215.6 L561.8,215.6 L561.8,215.7 Z M537.7,194.4 L570.6,194.4 C588.3,194.4 600.5,195.7 607.3,198.4 C614.1,201.1 619.3,205.4 623.1,211.6 C626.9,217.7 628.8,224.7 628.8,232.6 C628.8,239.9 627.1,245.9 623.7,250.7 C620.3,255.5 614.4,259.5 606,262.9 L627.9,316.4 L604.1,316.4 L583.7,267.4 L561.7,267.4 L561.7,316.4 L537.6,316.4 L537.6,194.4 L537.7,194.4 Z" id="Shape" fill="#55565A"></path>
                <polygon id="Shape" fill="#55565A" points="636.1 194.4 728.6 194.4 728.6 215.4 694.2 215.4 694.2 316.4 670.3 316.4 670.3 215.4 636.1 215.4"></polygon>
                <path d="M773.4,227.4 L759.4,270 L787.2,270 L773.4,227.4 Z M760.7,194.4 L786.1,194.4 L825.8,316.4 L802.2,316.4 L792.9,287.8 L753.9,287.8 L744.7,316.4 L721.1,316.4 L760.7,194.4 Z" id="Shape" fill="#55565A"></path>
                <path d="M862.1,215.7 L862.1,248.5 L881.3,248.5 C888.3,248.5 894.3,246.5 899.2,242.5 C902.4,239.8 904.1,236.1 904.1,231.4 C904.1,226.9 902.3,223.1 898.7,220.1 C895.1,217.1 889.3,215.6 881.3,215.6 L862.1,215.6 L862.1,215.7 Z M838,194.4 L870.9,194.4 C888.6,194.4 900.8,195.7 907.6,198.4 C914.4,201.1 919.6,205.4 923.4,211.6 C927.2,217.7 929.1,224.7 929.1,232.6 C929.1,239.9 927.4,245.9 924,250.7 C920.6,255.5 914.7,259.5 906.3,262.9 L928.2,316.4 L904.4,316.4 L884,267.4 L862,267.4 L862,316.4 L838,316.4 L838,194.4 Z" id="Shape" fill="#55565A"></path>
                <rect id="Rectangle-path" fill="#55565A" x="952.1" y="194.4" width="23.9" height="122"></rect>
                <path d="M1039.2,227.4 L1025.2,270 L1053,270 L1039.2,227.4 Z M1028.3,194.4 L1053.7,194.4 L1093.4,316.4 L1069.8,316.4 L1060.5,287.8 L1021.5,287.8 L1012.3,316.4 L988.7,316.4 L1028.3,194.4 Z" id="Shape" fill="#55565A"></path>
                <polygon id="Shape" fill="#55565A" points="1105.4 194.4 1130.8 194.4 1180.8 276.3 1180.8 194.4 1204.6 194.4 1204.6 316.4 1180.8 316.4 1129.4 231.3 1129.4 316.4 1105.4 316.4"></polygon>
            </g>
        </g>
        <text id="Party-of-Duval-Count" font-family="Roboto-Thin, Roboto" font-size="90" font-style="condensed" font-weight="300" fill="#55565A">
            <tspan x="352" y="409">Party of Duval County</tspan>
        </text>
    </g>
</svg>