<?xml version="1.0" standalone="no"?>
<!DOCTYPE svg PUBLIC "-//W3C//DTD SVG 20010904//EN"
 "http://www.w3.org/TR/2001/REC-SVG-20010904/DTD/svg10.dtd">
<svg version="1.0" xmlns="http://www.w3.org/2000/svg"
 width="800.000000pt" height="800.000000pt" viewBox="0 0 800.000000 800.000000"
 preserveAspectRatio="xMidYMid meet">

<g transform="translate(0.000000,800.000000) scale(0.100000,-0.100000)"
fill="#000000" stroke="none">
<path d="M520 6518 c-127 -48 -229 -143 -298 -276 l-42 -80 0 -2162 0 -2162
42 -81 c53 -101 157 -210 240 -251 50 -24 75 -29 190 -37 73 -4 1626 -8 3450
-9 l3317 0 58 21 c129 48 247 157 308 283 l35 73 0 2163 0 2163 -35 73 c-61
126 -179 235 -308 283 l-58 21 -3422 -1 -3422 0 -55 -21z m7200 -2858 l0
-1520 -3720 0 -3720 0 0 1520 0 1520 3720 0 3720 0 0 -1520z"/>
<path d="M4452 4888 c-6 -8 -17 -39 -23 -69 -19 -86 -5 -493 24 -749 14 -118
29 -249 32 -291 l7 -76 -117 1 c-111 1 -118 0 -136 -23 -25 -30 -25 -92 -1
-114 20 -18 83 -33 182 -42 36 -3 72 -10 79 -14 16 -10 26 -96 42 -371 6 -118
15 -219 19 -223 4 -5 45 -5 90 -1 127 11 120 -9 120 322 0 152 4 283 9 290 5
9 50 19 122 28 126 15 200 33 206 51 6 18 -151 177 -201 204 -38 20 -48 21
-71 11 -22 -10 -26 -17 -20 -41 4 -18 1 -32 -8 -40 -18 -14 -50 -3 -43 15 3 8
8 35 12 61 8 65 -14 957 -25 986 -14 36 -140 90 -221 95 -48 3 -69 0 -78 -10z"/>
<path d="M1821 4431 c-61 -65 -165 -387 -202 -626 -34 -218 -19 -220 -145 25
-140 271 -178 336 -212 358 -33 21 -190 21 -267 0 -48 -14 -50 -16 -58 -59 -4
-24 -9 -181 -10 -349 -2 -268 1 -326 21 -475 37 -275 42 -285 137 -285 75 0
186 36 222 72 l23 23 -15 135 c-8 74 -18 145 -20 158 -3 12 -3 22 -1 22 3 0
51 -75 108 -166 57 -91 117 -182 133 -201 l30 -35 125 11 c189 17 187 17 199
54 18 55 29 165 40 392 6 121 14 246 17 277 6 58 17 68 27 26 43 -196 134
-505 188 -640 22 -55 44 -122 50 -148 17 -82 20 -83 119 -60 71 17 175 48 188
56 2 2 -14 64 -37 139 -23 76 -41 145 -41 154 0 10 -11 55 -25 101 -14 46 -46
180 -71 299 -52 245 -126 547 -156 636 -35 105 -60 119 -235 131 l-102 7 -30
-32z"/>
<path d="M3759 4385 c-48 -36 -190 -197 -229 -261 -49 -82 -74 -152 -126 -354
-46 -183 -46 -186 -40 -302 8 -136 15 -161 71 -248 109 -170 223 -226 480
-237 145 -6 208 5 311 54 96 45 102 94 21 146 -53 35 -90 35 -120 1 -50 -59
-171 -93 -261 -74 -45 9 -62 19 -98 58 -65 69 -103 153 -103 227 l0 60 60 -2
c33 -1 103 -3 155 -5 69 -2 110 2 151 14 l56 18 7 187 c4 104 13 217 21 253 9
36 18 133 21 215 l6 150 -28 27 c-38 35 -212 98 -273 98 -35 0 -56 -7 -82 -25z
m81 -522 c-1 -130 -10 -216 -24 -230 -11 -11 -90 -3 -104 10 -11 11 -8 30 19
113 39 126 88 244 100 244 5 0 9 -62 9 -137z"/>
<path d="M2829 4299 c-94 -61 -209 -182 -247 -260 -66 -134 -75 -194 -76 -494
-1 -327 2 -345 83 -425 72 -71 171 -136 241 -157 68 -21 252 -23 360 -4 72 13
204 53 243 73 18 9 18 11 -5 35 -12 14 -41 34 -63 46 -53 28 -179 30 -245 3
-24 -9 -65 -20 -90 -23 -39 -4 -51 -1 -87 26 -84 61 -123 159 -123 306 0 109
2 111 86 95 88 -17 311 -18 341 -2 31 17 38 74 37 292 -1 206 -17 354 -44 416
-20 47 -52 65 -166 94 -123 32 -169 28 -245 -21z m125 -377 c8 -95 -2 -198
-20 -213 -10 -8 -23 -6 -51 8 -33 16 -38 22 -35 48 7 59 74 235 90 235 5 0 12
-35 16 -78z"/>
<path d="M6530 4304 c-82 -41 -237 -200 -282 -289 -70 -137 -136 -382 -158
-585 -14 -131 -28 -165 -68 -173 -60 -12 -65 -69 -13 -129 46 -53 50 -70 66
-225 20 -191 62 -443 83 -502 l18 -46 124 -3 c69 -1 130 1 137 6 13 8 12 13
-25 153 -24 91 -45 318 -40 442 l3 89 75 24 c153 48 407 260 525 438 69 103
113 294 100 430 -13 138 -69 261 -132 291 -107 51 -244 98 -298 102 -51 4 -68
0 -115 -23z m205 -241 c4 -10 10 -64 12 -119 6 -120 -12 -222 -57 -312 -50
-98 -280 -329 -288 -289 -5 24 45 247 80 357 48 152 105 256 187 343 39 41 55
46 66 20z"/>
<path d="M5163 3949 c-32 -12 -37 -44 -30 -223 13 -332 85 -626 171 -706 27
-24 32 -25 175 -25 l147 0 50 37 c70 51 154 143 154 167 0 12 4 21 10 21 5 0
35 37 65 83 30 45 66 97 80 115 52 71 87 369 48 408 -25 25 -192 103 -234 110
-29 5 -40 2 -56 -15 -18 -20 -21 -40 -26 -229 -6 -235 -11 -260 -86 -386 -55
-94 -103 -152 -118 -143 -17 11 -22 60 -38 353 -9 186 -18 283 -28 306 -17 42
-51 67 -132 101 -71 29 -122 38 -152 26z"/>
</g>
</svg>
